# xmcd
#
# Track frame offsets:
#	150
#	13445
#	24427
#	41877
#	51197
#	73125
#	91345
#	101795
#	114080
#	130490
#	142522
#	153722
#
# Disc length: 2187 seconds
#
# Revision: 0
# Processed by: cddbd v1.4PL0 Copyright (c) Steve Scherf et al.
# Submitted via: dBpowerAMP V4.0
#
DISCID=a508890c
DTITLE=Aase and Wolf - På Fest Med Teddy Nelson
DYEAR=1900
DGENRE=Country
TTITLE0=Låvedans
TTITLE1=Sydvest,Blazer og Overtrekksko
TTITLE2=Oksefestival
TTITLE3=I Lusekoft Og Sixpence
TTITLE4=Eg and Dag
TTITLE5=Onkel Pedar
TTITLE6=På Haukeli Topp
TTITLE7=Bonde Ifrå Hamlagrø
TTITLE8=Langs Norskekysten
TTITLE9=Flyskrekk
TTITLE10=Deng Meg, Heng Meg
TTITLE11=Diggy Liggy
EXTD=
EXTT0=
EXTT1=
EXTT2=
EXTT3=
EXTT4=
EXTT5=
EXTT6=
EXTT7=
EXTT8=
EXTT9=
EXTT10=
EXTT11=
PLAYORDER=
